<svg xmlns="http://www.w3.org/2000/svg" xmlns:xlink="http://www.w3.org/1999/xlink" height="800" width="1200" version="1.2" viewBox="-120 -200 1040 1200"><defs><linearGradient id="a" y2="256" x2="128" y1="0" x1="128" gradientUnits="userSpaceOnUse"><stop stop-color="#f5f5f6" offset="0"/><stop stop-color="#ededee" offset="1"/></linearGradient><linearGradient y2="256" x2="128" y1="0" x1="128" gradientUnits="userSpaceOnUse" id="b" xlink:href="#a"/></defs><g fill-rule="evenodd"><path d="M256 128c0 70.692-57.308 128-128 128C57.308 256 0 198.692 0 128 0 57.308 57.308 0 128 0c70.692 0 128 57.308 128 128" fill="url(#b)" transform="scale(3.125)"/><path d="M780.625 400c0 210.212-170.413 380.625-380.625 380.625-210.213 0-380.625-170.413-380.625-380.625C19.375 189.787 189.787 19.375 400 19.375c210.212 0 380.625 170.412 380.625 380.625" fill="#fff"/><path d="M657.5 235L443.437 444.375v260.312c0 4.688-20.312 8.438-43.437 8.75-22.188-.312-43.438-4.062-43.438-8.75V444.375L142.5 235c-3.438-3.438 7.5-19.688 24.375-36.563 16.875-16.875 33.437-27.812 36.562-24.375l196.25 191.563 196.25-191.563c3.438-3.437 19.688 7.5 36.563 24.375 16.875 16.875 28.125 33.125 25 36.563" fill="#ec1c24"/></g></svg>