<?xml version="1.0" encoding="utf-8"?>
<!-- Generator: Adobe Illustrator 25.0.0, SVG Export Plug-In . SVG Version: 6.00 Build 0)  -->
<svg version="1.1" id="Слой_1" xmlns="http://www.w3.org/2000/svg" xmlns:xlink="http://www.w3.org/1999/xlink" x="0px" y="0px"
	 viewBox="0 0 25.7 25.8" style="enable-background:new 0 0 25.7 25.8;" xml:space="preserve">
<style type="text/css">
	.st0{fill:url(#SVGID_1_);}
	.st1{fill:url(#SVGID_2_);}
	.st2{fill:url(#SVGID_3_);}
	.st3{fill:url(#SVGID_4_);}
	.st4{fill:url(#SVGID_5_);}
	.st5{fill:#9B4FDC;}
</style>
<linearGradient id="SVGID_1_" gradientUnits="userSpaceOnUse" x1="25.8213" y1="24.7565" x2="-0.1626" y2="24.8574" gradientTransform="matrix(1 0 0 -1 0 27.9077)">
	<stop  offset="0" style="stop-color:#9D4EDD"/>
	<stop  offset="0.5" style="stop-color:#5A8BC4"/>
	<stop  offset="1" style="stop-color:#80FFDB"/>
</linearGradient>
<path class="st0" d="M3,6.1c-1.7,0-3-1.4-3-3c0-1.7,1.4-3,3-3s3,1.4,3,3C6,4.7,4.7,6.1,3,6.1z"/>
<linearGradient id="SVGID_2_" gradientUnits="userSpaceOnUse" x1="25.8506" y1="5.0357" x2="-9.780288e-02" y2="5.2683" gradientTransform="matrix(1 0 0 -1 0 27.9077)">
	<stop  offset="0" style="stop-color:#9D4EDD"/>
	<stop  offset="0.5" style="stop-color:#5A8BC4"/>
	<stop  offset="1" style="stop-color:#80FFDB"/>
</linearGradient>
<path class="st1" d="M0,22.7c0-0.9,0.4-1.6,0.9-2.2C1.5,20,2.2,19.7,3,19.7h9h0.8c1.7,0,3,1.4,3,3.1c0,1.7-1.3,3-3,3l-9.8,0
	C1.4,25.7,0,24.4,0,22.7z"/>
<linearGradient id="SVGID_3_" gradientUnits="userSpaceOnUse" x1="12.9804" y1="11.2693" x2="0.9463" y2="11.2693" gradientTransform="matrix(1 0 0 -1 0 27.9077)">
	<stop  offset="0" style="stop-color:#1D1821;stop-opacity:1.000000e-02"/>
	<stop  offset="1" style="stop-color:#7FFBDA"/>
</linearGradient>
<path class="st2" d="M0.9,20.5l6.9-6.9l0,0c1.2-1.2,3.1-1.2,4.3,0c1.2,1.2,1.2,3.1,0,4.3l-0.5,0.5c-0.2,0.2-0.3,0.5-0.2,0.8
	c0.1,0.3,0.4,0.5,0.7,0.5H3C2.2,19.7,1.5,20,0.9,20.5z"/>
<linearGradient id="SVGID_4_" gradientUnits="userSpaceOnUse" x1="25.8169" y1="24.6513" x2="-0.1516" y2="25.3354" gradientTransform="matrix(1 0 0 -1 0 27.9077)">
	<stop  offset="0" style="stop-color:#9D4EDD"/>
	<stop  offset="0.5" style="stop-color:#5A8BC4"/>
	<stop  offset="1" style="stop-color:#80FFDB"/>
</linearGradient>
<path class="st3" d="M12.8,6.1c-1.7,0-3-1.4-3-3c0-1.7,1.4-3.1,3-3.1l9.8,0c1.7,0,3,1.4,3,3.1c0,0.8-0.3,1.6-0.9,2.1
	c-0.5,0.5-1.3,0.9-2.1,0.9h-9h0L12.8,6.1z"/>
<linearGradient id="SVGID_5_" gradientUnits="userSpaceOnUse" x1="24.7763" y1="18.7877" x2="12.6814" y2="18.7877" gradientTransform="matrix(1 0 0 -1 0 27.9077)">
	<stop  offset="0" style="stop-color:#9D4EDD"/>
	<stop  offset="1" style="stop-color:#1D1821;stop-opacity:1.000000e-02"/>
</linearGradient>
<path class="st4" d="M22.6,6.1c0.8,0,1.6-0.3,2.1-0.9l-6.9,6.9l0,0c-1.2,1.2-3.1,1.2-4.3,0c-1.2-1.2-1.2-3.1,0-4.3l0.5-0.5
	c0.2-0.2,0.3-0.5,0.2-0.8c-0.1-0.3-0.4-0.5-0.7-0.5L22.6,6.1z"/>
<ellipse transform="matrix(0.9365 -0.3508 0.3508 0.9365 -6.5397 9.4018)" class="st5" cx="22.7" cy="22.8" rx="3" ry="3"/>
</svg>
