<svg width="24" height="24" viewBox="0 0 24 24" fill="none" xmlns="http://www.w3.org/2000/svg">
<path d="M23.7169 7.4152C22.4252 4.40236 17.0691 3.73622 11.2733 5.6873L8.70003 4.15551C7.89864 3.71931 6.98565 4.25019 6.93831 5.13274L6.94169 7.62147C1.94733 10.4686 -0.950547 14.5635 0.283672 17.4479C1.71401 20.7786 8.11505 21.2385 14.5837 18.4657C21.0558 15.6963 25.1405 10.7493 23.7169 7.4152ZM9.471 6.0863L15.6252 9.77544C16.0817 10.0358 16.1358 10.7087 15.6522 11.0097L9.4338 14.6143C8.9604 14.8746 8.29426 14.5635 8.30779 13.9075L8.27736 6.74906C8.30441 6.15055 8.92659 5.79212 9.471 6.0863ZM6.22821 19.5275C3.41487 19.3246 2.29224 17.5629 3.02601 15.1587C3.02263 15.5577 3.08687 15.9432 3.24242 16.2982C4.34138 18.8681 9.27826 19.2164 14.2659 17.0827C14.3673 17.0387 14.4687 16.9914 14.5702 16.9474C11.7737 18.672 8.65269 19.6965 6.22821 19.5275ZM17.8907 13.0115C15.3986 16.0311 10.8912 18.1208 7.82425 17.9044C4.76406 17.6846 4.29742 15.0606 6.79291 12.041C6.84025 11.9767 6.89435 11.9193 6.94846 11.855L6.95522 15.6388C6.93831 16.6025 7.91554 17.0523 8.61212 16.6702L17.7792 11.3546C18.496 10.9116 18.4182 9.92422 17.7453 9.5455L14.0325 7.50988C15.0368 7.22246 16.0005 7.08721 16.856 7.14807C19.9196 7.36786 20.3795 9.99185 17.8907 13.0115ZM21.3466 8.66295C21.333 8.62913 21.3229 8.59532 21.3094 8.56151C20.42 6.49208 17.0488 5.86313 13.1601 6.80993L12.521 6.43121C14.4349 5.64672 16.3421 5.23419 17.9415 5.34915C20.322 5.51823 21.4886 6.80993 21.3466 8.66295Z" fill="#7980C2"/>
</svg>
