<svg width="24" height="24" viewBox="0 0 24 24" fill="none" xmlns="http://www.w3.org/2000/svg">
<path fill-rule="evenodd" clip-rule="evenodd" d="M23.9956 8.3963C23.9626 7.67177 23.7415 6.99257 23.3311 6.42982C22.6688 5.52133 21.4415 5 20.2117 5H7.36292C5.3116 5 3.21362 6.44831 2.30837 8.3963C2.21269 8.60255 2.12619 8.81239 2.05892 9.0294L0.202833 15.1112C0.0437681 15.6207 -0.0179995 16.1293 0.00446181 16.618C0.0381538 17.3272 0.2551 17.9916 0.65746 18.5434C1.30873 19.4361 2.37391 19.9477 3.58132 19.9477H15.6698L16.4601 19.9371C18.5029 19.9371 20.7347 18.5317 21.6972 16.618C21.8264 16.359 21.9375 16.0916 22.0234 15.8165L23.7933 9.9268C23.9544 9.40885 24.0181 8.89219 23.9956 8.3963Z" fill="#170C11"/>
<path fill-rule="evenodd" clip-rule="evenodd" d="M14.7248 15.5445H17.6089C17.632 15.5445 17.6524 15.5294 17.6593 15.5072L19.5119 9.47198C19.5225 9.43784 19.497 9.40305 19.4615 9.40305H16.6001C16.5768 9.40305 16.5565 9.41816 16.5496 9.44034L14.6743 15.4756C14.6637 15.5098 14.6891 15.5445 14.7248 15.5445ZM17.5796 6.35901H20.3991C22.1331 6.35901 23.1313 7.66271 22.5874 9.40914L20.7753 15.3927C20.2303 17.1383 18.3178 18.577 16.5846 18.577H13.7644C12.0291 18.577 11.0951 17.1472 11.6398 15.4016L13.4751 9.39381C14.0195 7.64749 15.8446 6.35901 17.5796 6.35901ZM6.49448 9.40988H12.3725C12.3956 9.40988 12.4161 9.39477 12.423 9.37259L13.3547 6.43586C13.3653 6.40172 13.3399 6.36682 13.3042 6.36682H7.42068C5.73576 6.36682 3.95441 7.63475 3.42484 9.33193L1.49825 15.5033C0.968679 17.1996 1.91432 18.5888 3.6 18.5888H6.66413C8.35034 18.5888 10.0103 17.1996 10.5403 15.5033L11.8183 11.3156C11.829 11.2813 11.8035 11.2465 11.7679 11.2465H7.46571C7.44271 11.2465 7.4222 11.2616 7.41539 11.2837L6.65376 13.6609C6.64296 13.6951 6.66845 13.7299 6.70419 13.7299H7.94053C7.97617 13.7299 8.00154 13.7648 7.99096 13.799L7.47684 15.5006C7.47003 15.5226 7.44951 15.5378 7.42641 15.5378H4.62382C4.58819 15.5378 4.56281 15.503 4.57339 15.4686L6.44416 9.44707C6.45107 9.42499 6.47148 9.40988 6.49448 9.40988Z" fill="#CE232E"/>
</svg>
