<svg width="24" height="24" viewBox="0 0 24 24" fill="none" xmlns="http://www.w3.org/2000/svg">
<path d="M3.4286 22.2858V4.48853L18.4525 12.0003L9.94286 16.255V12.0003C9.94286 11.0535 9.17534 10.2861 8.22858 10.2861C7.28179 10.2861 6.5143 11.0535 6.5143 12.0003V19.0287C6.5143 19.6245 6.82052 20.1737 7.32732 20.4869C7.83412 20.8002 8.46234 20.8284 8.99522 20.562L23.0524 13.5336C23.6343 13.2426 24 12.6509 24 12.0003C24 11.3497 23.6343 10.758 23.0524 10.467L2.48096 0.181572C1.94807 -0.0848646 1.31986 -0.0565942 0.813057 0.256607C0.306256 0.569808 0 1.11906 0 1.71482V22.2858C0 23.2325 0.767526 24 1.71428 24C2.66107 24 3.4286 23.2325 3.4286 22.2858Z" fill="#FF002A"/>
</svg>
