<svg width="24" height="24" viewBox="0 0 24 24" fill="none" xmlns="http://www.w3.org/2000/svg">
<g clip-path="url(#clip0_915_3164)">
<path fill-rule="evenodd" clip-rule="evenodd" d="M9.47785 5.2257C9.47785 5.2257 9.13518 2.91927 11.1187 1.4168C10.0709 3.59802 10.6508 5.84514 10.809 6.37891C9.31969 6.43163 7.92266 6.87315 6.72991 7.6112C6.55198 7.03789 5.74803 4.9028 3.68542 3.71664C6.16977 3.83526 7.1846 5.93081 7.1846 5.93081C7.1846 5.93081 6.38724 2.55025 6.6047 0C8.22579 1.98353 9.47785 5.2257 9.47785 5.2257ZM11.369 7.26196C6.743 7.26196 3 11.0115 3 15.631C3 20.257 6.74959 24 11.369 24C15.9951 24 19.7381 20.2504 19.7381 15.631C19.7446 11.005 15.9951 7.26196 11.369 7.26196ZM11.369 23.1236C7.23064 23.1236 3.87644 19.7694 3.87644 15.631C3.87644 11.4926 7.23064 8.1384 11.369 8.1384C15.5074 8.1384 18.8616 11.4926 18.8616 15.631C18.8616 19.7694 15.5074 23.1236 11.369 23.1236ZM12.4694 9.35081C9.87305 9.50897 11.0394 12.8961 13.9126 12.7182C16.7198 12.5403 15.2371 9.17948 12.4694 9.35081Z" fill="#F68B2A"/>
<path fill-rule="evenodd" clip-rule="evenodd" d="M5.69521 18.201V16.4482H6.49916C7.00658 16.4482 7.39537 16.3229 7.66555 16.0791C7.93574 15.8353 8.06753 15.4992 8.06753 15.0709C8.06753 14.6425 7.93573 14.3065 7.67214 14.056C7.40855 13.8122 7.01976 13.687 6.49916 13.687H4.96375V18.201H5.69521ZM7.11201 14.491C7.2504 14.6294 7.32289 14.8205 7.32289 15.0775C7.32289 15.5981 7.02635 15.8551 6.42668 15.8551H5.69521V14.2867H6.42668C6.74299 14.2867 6.96704 14.3592 7.11201 14.491ZM10.8814 17.6343H9.3196V13.687H8.58813V18.201H10.8814V17.6343ZM14.2158 17.2256H12.3113L11.9686 18.2009H11.191L12.8517 13.7594H13.6886L15.3426 18.2009H14.565L14.2158 17.2256ZM14.0115 16.6589L13.2668 14.5502L12.5222 16.6589H14.0115ZM16.766 16.5602L18.2685 13.687H17.4316L16.397 15.776L15.3624 13.687H14.5189L16.028 16.5602V18.201H16.766V16.5602Z" fill="#F19021"/>
</g>
<defs>
<clipPath id="clip0_915_3164">
<rect width="24" height="24" fill="white"/>
</clipPath>
</defs>
</svg>
