<svg width="24" height="24" viewBox="0 0 24 24" fill="none" xmlns="http://www.w3.org/2000/svg">
<path d="M20 4C20 4.53712 19.979 5.06883 19.937 5.59513C19.8952 6.13586 19.8284 6.66522 19.7469 7.19027C19.66 7.73099 19.5513 8.26306 19.421 8.78648C19.2888 9.32721 19.1344 9.85874 18.9577 10.3811H8.43114C8.21728 9.85928 8.03001 9.32707 7.87005 8.78648H17.7964C17.9362 8.26306 18.0535 7.73099 18.1484 7.19027C18.2396 6.66649 18.3088 6.13478 18.3558 5.59513H5.64579C5.69141 6.13369 5.76003 6.66541 5.85165 7.19027C5.94688 7.73099 6.06493 8.26306 6.20579 8.78648C6.35064 9.32721 6.51956 9.85874 6.71256 10.3811C6.8632 10.7888 7.02724 11.1893 7.20467 11.5826C7.26442 11.7145 7.3258 11.8454 7.38935 11.9762C7.65224 12.5238 7.94193 13.0559 8.25841 13.5724C8.4344 13.8608 8.61799 14.1443 8.80918 14.423C8.98299 14.6753 9.16278 14.9235 9.34854 15.1676C9.48252 15.3438 9.62085 15.5181 9.76352 15.6904C9.9721 15.9464 10.1881 16.1964 10.4115 16.4404C10.5115 16.5486 10.6119 16.6567 10.7141 16.7649C10.7526 16.8049 10.7912 16.8449 10.8303 16.8838C11.204 17.2677 11.5956 17.6365 12.0019 17.9858C12.006 17.9897 12.0103 17.9934 12.0149 17.9966V17.9739C12.4169 17.6286 12.8029 17.2656 13.173 16.8849C13.2121 16.8449 13.2506 16.8049 13.2887 16.7649C13.3973 16.6491 13.5092 16.5329 13.6173 16.4145C13.8313 16.1791 14.0388 15.9388 14.2397 15.6937C14.3815 15.5217 14.5206 15.3471 14.6547 15.1697C14.8503 14.9141 15.0386 14.6535 15.2196 14.3878C15.4007 14.1222 15.5757 13.8518 15.7448 13.5767H10.1649C9.80925 13.0633 9.48283 12.5304 9.18722 11.9805H18.3439C18.106 12.5256 17.8453 13.0577 17.5617 13.5767C17.3293 14.0018 17.0823 14.4163 16.8209 14.8204C16.7454 14.9377 16.6682 15.054 16.5906 15.1697C16.2473 15.6784 15.8821 16.1701 15.495 16.6448L15.3961 16.7611C15.3369 16.8319 15.2772 16.9017 15.218 16.972C14.9645 17.2704 14.7009 17.5615 14.4271 17.8452C14.2642 18.0182 14.0915 18.1897 13.9198 18.3567C13.8193 18.4541 13.7178 18.5509 13.6156 18.6455C13.4967 18.7563 13.3772 18.8656 13.2555 18.9737C12.8717 19.3144 12.4734 19.6404 12.0606 19.9519C12.0399 19.9681 12.0187 19.9849 11.9976 20C11.9758 19.9849 11.9546 19.9681 11.934 19.9519C11.5234 19.6411 11.1251 19.3147 10.739 18.9726C10.6266 18.8737 10.5153 18.7715 10.4045 18.6698C10.2936 18.5682 10.1834 18.4627 10.0748 18.3567C9.90311 18.1897 9.7331 18.0182 9.56635 17.8452C9.30418 17.5716 9.04944 17.2904 8.80212 17.0017C8.73911 16.9233 8.67122 16.8438 8.60386 16.7611L8.50827 16.6416C8.12045 16.1675 7.75508 15.6762 7.41216 15.1676C7.34318 15.0654 7.27583 14.9626 7.20793 14.8588C6.93309 14.4414 6.6778 14.012 6.43881 13.5708C6.15528 13.0521 5.89456 12.52 5.65665 11.9746C5.63764 11.934 5.6208 11.8919 5.60234 11.8502C5.39666 11.3701 5.20963 10.8802 5.04125 10.3805C4.86454 9.8582 4.7101 9.32666 4.57793 8.78594C4.44829 8.26288 4.34002 7.73099 4.25311 7.19027C4.16911 6.66541 4.10574 6.13369 4.06301 5.59513C4.021 5.06919 4 4.53748 4 4H20Z" fill="#868585"/>
</svg>
