<svg width="24" height="24" viewBox="0 0 24 24" fill="none" xmlns="http://www.w3.org/2000/svg">
<path fill-rule="evenodd" clip-rule="evenodd" d="M5.02798 0C2.2569 0 0 2.27007 0 5.06009C0 5.86825 0.650759 6.523 1.45529 6.523C2.25803 6.523 2.90993 5.86825 2.90993 5.06009C2.90993 3.88491 3.86011 2.92776 5.02798 2.92776C6.19535 2.92776 7.1457 3.88491 7.1457 5.06009C7.1457 5.86825 7.79695 6.523 8.60083 6.523C9.40487 6.523 10.0555 5.86825 10.0555 5.06009C10.0555 2.27007 7.80035 0 5.02798 0ZM8.60083 13.9406C7.79695 13.9406 7.1457 14.5971 7.1457 15.4054C7.1457 16.5804 6.19535 17.5366 5.02798 17.5366C3.86011 17.5366 2.90993 16.5804 2.90993 15.4054C2.90993 14.5971 2.25803 13.9406 1.45529 13.9406C0.650759 13.9406 0 14.5971 0 15.4054C0 18.1937 2.2569 20.4636 5.02798 20.4636C5.42716 20.4636 5.8145 20.4107 6.18903 20.3235L7.30661 22.3841C7.56402 22.858 8.04447 23.1317 8.54471 23.1459C8.55752 23.147 8.57228 23.147 8.58574 23.147C8.82207 23.147 9.05954 23.0888 9.28078 22.9682C9.98767 22.5789 10.2469 21.6906 9.86131 20.9817L8.70269 18.8458C9.53934 17.9415 10.0555 16.7347 10.0555 15.4054C10.0555 14.5971 9.40487 13.9406 8.60083 13.9406ZM2.91105 13.638C2.51673 13.3089 2.00709 13.1081 1.45528 13.1081C0.902812 13.1081 0.396089 13.3076 0.0011238 13.6367V6.82879C0.396089 7.15796 0.902812 7.35576 1.45528 7.35576C2.00709 7.35576 2.51673 7.15617 2.91105 6.82586V13.638ZM8.60082 7.35589C8.04738 7.35589 7.54066 7.1563 7.14569 6.82599V13.6382C7.54066 13.3077 8.04738 13.1083 8.60082 13.1083C9.15263 13.1083 9.65936 13.3077 10.0543 13.6369V6.82892C9.65936 7.1563 9.15263 7.35589 8.60082 7.35589ZM18.3126 0C15.1772 0 12.6256 2.56777 12.6256 5.72366C12.6256 6.63779 13.3638 7.3784 14.2718 7.3784C15.1805 7.3784 15.9179 6.63779 15.9179 5.72366C15.9179 4.39437 16.992 3.3117 18.3126 3.3117C19.6337 3.3117 20.7085 4.39437 20.7085 5.72366C20.7085 6.63779 21.4451 7.3784 22.3546 7.3784C23.2633 7.3784 24 6.63779 24 5.72366C24 2.56777 21.4484 0 18.3126 0ZM13.9866 8.3041C14.0821 8.31333 14.1762 8.32072 14.272 8.32072C15.4323 8.32072 16.4159 7.54762 16.7386 6.48544L22.5764 14.8393L22.5339 14.8362C22.4737 14.8318 22.4142 14.8275 22.3548 14.8275C21.1721 14.8275 20.1766 15.6332 19.8702 16.7266L13.9866 8.3041ZM20.7085 17.4257C20.7085 16.5113 21.4451 15.7687 22.3546 15.7687C23.2634 15.7687 24 16.5113 24 17.4257C24 20.5795 21.4484 23.1471 18.3126 23.1471C15.1772 23.1471 12.6257 20.5795 12.6257 17.4257C12.6257 16.5113 13.3638 15.7687 14.2718 15.7687C15.1806 15.7687 15.9179 16.5113 15.9179 17.4257C15.9179 18.7548 16.992 19.8363 18.3126 19.8363C19.6337 19.8363 20.7085 18.7548 20.7085 17.4257Z" fill="#E46F2A"/>
</svg>
