<svg width="24" height="24" viewBox="0 0 24 24" fill="none" xmlns="http://www.w3.org/2000/svg">
<path fill-rule="evenodd" clip-rule="evenodd" d="M15.7642 7.83932C15.7932 8.26945 16.0255 8.76103 16.5482 8.48452C17.3032 8.08511 17.0418 7.40919 17.0128 7.19412C16.8386 7.22485 16.5482 7.22485 16.374 7.28629C16.1707 7.37846 15.9094 7.59353 15.7642 7.83932ZM6.79154 7.50136C6.79154 7.90077 6.76251 8.3309 7.34326 8.51525C7.69171 8.63814 8.09823 8.14656 8.12727 7.8086C7.89497 7.50136 7.66267 7.37847 7.45941 7.2863C6.93673 7.07123 6.82058 7.00978 6.79154 7.50136ZM10.0147 11.3725C10.0147 11.3725 9.63722 11.6183 9.63722 11.9563C9.63722 12.4171 9.75337 12.5093 9.84048 12.6015C10.0147 12.7858 10.8278 12.8165 10.9729 12.8165C12.1345 12.8473 12.5991 12.8165 13.7606 12.7858C14.0219 12.7858 14.1671 12.6936 14.3413 12.4786C14.4575 12.3557 14.4575 12.1099 14.3413 11.8334C14.2832 11.6798 14.1961 11.4647 14.0509 11.3725C13.9638 11.5261 14.08 11.9563 13.4411 12.2021C13.1798 12.2942 12.4248 12.3864 12.1054 12.3864C10.6826 12.3864 9.98567 12.1713 10.0147 11.3725ZM8.96935 10.5123C8.33053 10.5123 8.1563 10.9117 8.01112 11.3418C7.80785 11.8948 8.44668 12.4786 7.4594 12.7858C7.83689 13.1238 8.33053 13.984 8.94032 14.5371C7.89496 14.7829 7.4594 13.8919 6.73346 13.4925C6.93672 14.7829 8.06919 14.9672 8.76609 15.6124C8.73705 15.7046 8.73705 15.6739 8.70802 15.7353C8.06919 15.551 7.43036 15.3973 6.64635 15.1823C7.2271 16.319 8.33053 15.766 9.02743 16.3805C8.35957 16.8414 7.74978 16.5956 7.13999 16.5034C7.02384 16.5034 6.87865 16.5956 6.73346 16.6263C6.82057 16.7492 6.87865 16.9335 6.9948 17.0257C7.28518 17.21 7.57555 17.4251 7.89496 17.5173C8.18534 17.6094 8.50475 17.6402 8.79513 17.548C9.66626 17.2715 10.5083 16.9335 11.3795 16.5648C11.5247 16.5034 11.6989 16.319 11.7279 16.1347C11.786 15.8582 11.7279 15.5202 11.757 15.2437C11.786 14.8136 11.6118 14.5371 11.2343 14.4142C10.4212 14.1684 9.75337 13.6768 9.23069 12.9702C9.02743 12.6937 8.8532 12.1713 8.8532 11.8334C8.82417 11.434 8.91128 10.9731 8.96935 10.5123ZM16.8675 12.9394C16.0545 12.6937 16.0255 12.1099 15.9964 11.5569C15.9964 11.4033 15.9383 11.2189 15.8512 11.1267C15.648 10.9117 15.3866 10.6966 15.1543 10.5123C15.1253 10.7888 15.0672 11.0653 15.0963 11.3418C15.0963 11.649 15.1834 11.9256 15.1834 12.2328C15.1834 12.3864 15.0962 12.6322 15.0091 12.7551C14.4284 13.4925 13.7605 14.1377 12.8604 14.4756C12.6571 14.5371 12.4248 14.7829 12.3958 14.9672C12.3377 15.3359 12.3667 15.7046 12.3667 16.0425C12.3667 16.2883 12.5119 16.5034 12.7442 16.5956C13.6153 16.9642 14.4284 17.2715 15.2414 17.5787C15.4447 17.6402 15.706 17.6709 15.9093 17.6094C16.2868 17.4558 16.6352 17.21 16.9837 16.995C17.0998 16.9028 17.187 16.7185 17.2741 16.5648C17.1289 16.5034 17.0127 16.5341 16.8675 16.5341C16.461 16.4419 15.8803 16.4727 15.6189 16.1962C16.1997 15.9504 16.9256 16.104 17.3031 15.213C16.5481 15.3973 15.9383 15.5817 15.2995 15.7353L15.2414 15.6124C15.8803 14.9672 17.0708 14.875 17.1289 13.5539C16.4901 13.984 16.0545 14.7829 15.0382 14.5371C15.6189 13.984 16.1416 13.5539 16.8675 12.9394ZM15.0382 21.2963C14.864 20.4975 15.0382 20.3132 15.7061 20.559C15.9674 20.6511 16.1416 20.8969 16.3739 21.0813L16.8385 21.45C16.0835 18.8384 14.1671 18.0396 11.2633 18.1932C8.91126 18.3161 7.37227 19.7909 7.28516 21.4192C7.5465 21.2042 7.69169 20.8969 7.95302 20.7433C8.21436 20.5897 8.59185 20.3439 8.85319 20.5282C9.02741 20.6511 8.85319 21.2042 8.9403 21.5421C10.3922 22.4638 12.0764 22.3717 12.0473 21.3271C12.0473 22.1259 12.5119 22.1259 12.9184 22.1259C13.7025 22.0951 14.5155 21.8186 15.0382 21.2963ZM7.69174 1.3259C7.05291 1.72531 6.00756 2.06327 5.45585 1.9711C4.8751 1.87892 4.20723 1.8482 3.62648 1.69458C3.45226 1.63313 3.24899 1.66386 3.04573 1.78675C3.45226 2.00182 4.81702 2.64702 4.81702 2.67774C4.67183 2.61629 3.88782 2.43195 3.65552 2.3705C3.80071 2.98498 3.91686 3.50728 4.03301 4.02958C4.09108 3.99886 4.14916 3.99886 4.17819 3.96814C4.09108 4.55189 3.94589 5.13564 3.91686 5.71939C3.88782 6.42603 4.09108 7.04051 4.67183 7.53209C5.28162 8.05439 5.77526 8.79176 6.41409 9.28334C7.05291 9.77492 7.83693 10.0207 8.85324 9.80564C8.59191 9.55985 8.47575 9.34479 8.30153 9.25262C7.98212 9.06827 7.63367 8.94538 7.28521 8.82248C5.92045 8.36163 5.19451 7.22485 4.61376 5.9959C4.46857 5.65794 4.52665 5.22781 4.46857 4.8284L4.67183 4.76695C4.78798 5.01274 4.90413 5.25853 5.02028 5.53505C5.19451 5.96518 5.45585 6.14952 5.94949 6.14952C7.08195 6.14952 8.15634 6.36459 8.79517 7.59354C9.11458 8.23873 9.49207 8.85321 10.1309 9.12972C10.189 9.099 10.1019 8.42308 9.98571 8.08512C10.5084 7.87005 10.3051 7.53209 10.0147 7.22485C9.63726 6.79472 9.25977 6.36459 8.85324 5.90373C9.25977 5.78084 9.78244 5.44288 9.75341 5.38143H7.54655V5.31998C8.18538 5.19709 9.46303 4.70551 9.46303 4.58261C8.44672 3.90669 7.22714 4.33682 6.12371 4.15248V3.99886C6.82061 3.81452 7.54655 3.63018 8.24345 3.41511C8.94036 3.23077 10.2761 2.64702 10.247 2.55485H7.34329C8.24345 2.12471 9.05651 1.47952 10.1019 1.51024C11.2053 1.54096 12.3087 1.57169 13.3831 1.51024C14.6027 1.41807 15.5609 2.03254 16.6353 2.55485H13.7316C13.7316 2.64702 15.0963 3.23077 15.7932 3.41511C16.4901 3.59945 17.187 3.7838 17.8549 4.06031C16.7515 4.36755 15.5319 3.90669 14.4285 4.64406C15.0382 5.38143 15.8223 5.01274 16.5482 5.3507H14.1962C14.1671 5.44288 14.6898 5.78084 15.0963 5.90373C14.6898 6.36459 14.2833 6.82544 13.8767 7.25557C13.5573 7.59354 13.5573 7.87005 13.9639 8.05439C13.8477 8.39235 13.7316 9.099 13.7896 9.12972C14.051 8.91466 14.3123 8.73031 14.5446 8.48452C14.7769 8.20801 15.0092 7.87005 15.1834 7.53209C15.7351 6.33386 16.8095 6.1188 17.8549 6.1188C18.5228 6.1188 18.8131 5.90373 19.0164 5.28926C19.0745 5.10492 19.1906 4.92057 19.3068 4.67478C19.5681 5.38143 19.3648 5.87301 19.1035 6.42603C18.4066 7.90077 17.2451 8.63814 15.8513 9.12972C15.59 9.22189 15.3867 9.46768 15.1834 9.6213C15.1834 9.6213 15.8513 9.89781 16.1417 9.83637C17.3322 9.55985 18.3485 8.9761 19.0164 7.83933C19.0745 7.71643 19.2197 7.56281 19.3068 7.47064C19.9746 6.79472 20.236 5.68867 19.9456 4.73623C19.8585 4.45972 19.3648 4.09103 20.0617 3.90669C20.0908 3.90669 20.0908 3.84524 20.0908 3.78379C20.1198 3.35366 20.1779 2.92353 20.2069 2.40123C19.8875 2.58557 19.5391 2.64702 19.1616 2.86208C19.5971 2.40123 20.236 2.00182 20.9619 1.8482C20.9619 1.78675 20.2069 1.57169 19.8294 1.60241C19.1325 1.66386 18.4647 1.87892 17.7968 1.87892C17.3322 1.87892 16.4901 1.3259 16.5192 1.3259C18.5808 1.66386 20.4973 1.01866 22.3267 0.127673C23.0817 -0.241012 23.8366 0.219844 23.8366 1.11083C23.8076 2.27833 23.6043 3.41511 22.6751 4.24465C22.5009 4.39827 22.3267 4.88985 22.3267 4.88985L23.1397 4.45972C23.2559 5.53505 22.4428 5.75011 21.7169 6.05735C21.5717 5.75011 21.4846 5.44288 21.3104 5.16636C21.2232 5.01274 20.9909 4.98202 20.8167 4.88985C20.7296 5.07419 20.5844 5.22781 20.5844 5.41215C20.5844 5.81156 20.6135 6.18024 20.6715 6.57965C20.7877 7.59354 20.4392 8.39235 19.6843 9.00683C19.5971 9.06827 19.5391 9.19117 19.452 9.28334C19.8004 9.59058 19.8004 9.59058 20.4973 9.25262C20.3521 9.6213 20.3231 10.1129 20.0617 10.2972C19.7714 10.5123 19.3068 10.3894 18.9293 10.4201C18.9874 10.9117 18.9874 10.9117 20.236 11.2497C20.1779 11.4647 20.1198 11.7105 20.0617 11.9256C19.9456 12.3864 19.4229 12.6015 19.0454 12.325C18.3195 11.8027 17.5936 11.4033 16.6353 11.7412C17.4193 12.2021 18.2033 12.6937 19.0454 13.1853C18.726 13.6461 18.7841 13.9226 19.2487 14.1684C19.6843 14.4142 19.7714 15.766 19.3939 16.1655C18.9874 16.5956 18.8712 19.2685 18.9293 19.2993C19.0745 19.0228 19.2777 18.2854 19.3939 17.9167C19.6552 17.0872 19.8294 16.6878 20.236 16.1655C20.5263 15.7968 21.1652 14.5371 20.3231 13.9533C20.3231 13.9533 20.4683 13.6154 20.7006 13.0624C21.02 12.1714 21.2813 11.8641 21.7169 11.0039C21.7459 10.9424 22.2396 10.2051 22.2976 10.1436C22.2976 10.1436 21.1652 13.8612 21.1361 14.0762C21.3394 14.0148 22.2396 13.6154 22.3267 13.6461C22.0363 14.6907 21.804 15.7353 21.4265 16.7492C21.049 17.7631 20.5554 18.7155 20.1198 19.6987C20.2069 19.7601 20.9619 19.4222 21.2232 19.1149C22.5009 17.548 22.9945 15.6739 23.1688 13.6768C23.2268 12.878 23.1688 12.0792 23.314 11.2497C23.4882 11.987 23.7786 12.7244 23.8366 13.4925C23.9237 14.5678 24.156 15.1516 23.8366 16.7799C23.8366 16.9335 23.7786 17.0872 23.6914 17.2101C22.7622 18.777 21.804 20.3132 20.8458 21.8801L20.6715 21.112C20.5844 21.112 20.5844 21.112 20.4973 21.0812C20.4102 21.2656 20.294 21.4499 20.2069 21.6343C19.8875 22.4024 19.1325 23.8771 19.0745 23.8771V21.665C19.0745 21.327 19.0745 20.8969 18.6099 20.8969C18.1743 20.8969 18.1453 21.2963 18.1453 21.665V22.9554C17.5936 22.6174 17.158 22.3102 16.6934 22.0951C16.1707 21.8493 15.6771 21.7572 15.2125 22.3102C14.7769 22.8018 14.1962 23.0168 13.4993 22.9554C12.541 22.8939 11.5828 22.9247 10.6536 23.0476C9.84052 23.1705 9.28881 22.7711 8.79517 22.2795C8.3596 21.8186 7.92404 21.8186 7.45944 22.0337C6.9658 22.2487 6.5012 22.556 5.92045 22.8939C5.89141 22.4638 5.92045 22.0337 5.83334 21.6036C5.77526 21.327 5.60104 20.9276 5.42681 20.8969C4.99125 20.8355 4.96221 21.2656 4.93317 21.6036C4.93317 22.3716 4.93317 23.1397 4.84606 24C4.4105 23.0476 3.97493 22.0951 3.51033 21.112C3.42322 21.112 3.42322 21.112 3.36514 21.1427C3.30707 21.3885 3.24899 21.665 3.16188 21.9722C2.55209 20.8969 1.97134 19.8523 1.39059 18.8077C1.36155 18.7462 1.33251 18.7155 1.30348 18.6541C0.955024 17.9167 0.28716 17.0564 0.17101 16.5034C-0.235516 14.7829 0.112935 12.9702 0.896949 11.3111V12.4786C0.896949 12.878 0.867912 13.3081 0.896949 13.7076C1.04214 15.7046 1.53578 17.548 2.78439 19.1149C3.04573 19.4529 3.45226 19.6372 3.88782 19.8216C2.90054 17.8245 2.05845 15.8275 1.79711 13.769L2.78439 14.1377C2.69728 13.769 2.6392 13.4003 2.46498 13.0624C2.23268 12.5401 2.02941 11.2189 1.71 10.0822C2.14556 11.0346 2.6392 12.0178 3.07477 12.7244C3.45226 13.3389 3.97493 14.1684 3.88782 14.2299C3.51033 14.5678 3.16188 15.4895 3.68456 16.3191C4.03301 16.8721 4.38146 17.3637 4.61376 18.0089C4.84606 18.6234 4.90413 18.5926 5.1074 19.5758C5.19451 19.2378 5.22355 18.5619 5.22355 18.439C5.22355 18.1932 5.07836 16.7185 4.67183 16.3191C4.14916 15.8275 4.35242 14.5064 4.90413 14.0455C5.07836 13.8919 4.99125 13.2774 4.99125 13.2774C5.77526 12.8166 6.55928 12.325 7.34329 11.8641C6.84965 11.4647 6.18179 11.6798 4.93317 12.5093C4.55568 12.7551 4.03301 12.5093 3.94589 12.0485L3.80071 11.1882C4.00397 11.1575 4.29434 11.1575 4.58472 11.0653C4.81702 10.9731 5.02028 10.7274 5.31066 10.5123C4.70087 10.3894 4.20723 10.4201 3.85878 10.2051C3.65552 10.0822 3.62648 9.59058 3.53937 9.22189C3.91686 9.34479 4.20723 9.43696 4.49761 9.52913L4.58472 9.34479C4.29434 9.00683 3.97493 8.66887 3.74263 8.30018C3.24899 7.47064 3.19092 6.57965 3.36514 5.62722C3.39418 5.41215 3.27803 5.13564 3.21995 4.92057C2.98765 5.07419 2.72632 5.19709 2.58113 5.38143C2.4069 5.53505 2.34883 5.81156 2.26171 6.08807C1.56481 5.71939 0.693686 5.59649 0.838874 4.49044L1.65193 4.92057C1.65193 4.92057 1.4777 4.42899 1.30348 4.27537C0.374273 3.41511 0.17101 2.27833 0.141972 1.08011C0.141972 0.219844 0.896949 -0.241012 1.62289 0.158396C2.98765 0.926489 4.49761 1.23373 5.97852 1.51024C6.5012 1.57169 7.02388 1.38735 7.69174 1.3259Z" fill="#EB2027"/>
</svg>
