<svg width="24" height="24" viewBox="0 0 24 24" fill="none" xmlns="http://www.w3.org/2000/svg">
<path fill-rule="evenodd" clip-rule="evenodd" d="M7.76143 12.8708L10.497 17.4513C10.497 17.4513 10.497 17.5149 10.6243 17.5785C10.6243 17.7058 10.5606 17.7694 10.4334 17.7694H8.27038C8.14314 17.7694 8.01591 17.7058 7.95229 17.5785L5.40756 13.1253H2.54473V17.5149C2.54473 17.6422 2.4175 17.7694 2.29026 17.7694H0.254473C0.127237 17.7694 0 17.6422 0 17.5149V6.25447C0 6.12724 0.127237 6 0.254473 6H5.34394H5.9165C8.27038 6.06362 10.1789 6.6998 10.1153 9.49901C10.1153 11.5984 9.16104 12.5527 7.76143 12.8708ZM5.34394 11.0895L5.98012 11.0258C7.25249 11.0258 7.6342 10.3897 7.69782 9.56263C7.69782 8.73559 7.31611 8.0994 5.98012 8.0994H5.40756H2.48111V11.0895H5.34394ZM15.0298 7.71769C15.0298 8.66635 14.2608 9.43539 13.3121 9.43539C12.3635 9.43539 11.5945 8.66635 11.5945 7.71769C11.5945 6.76904 12.3635 6 13.3121 6C14.2608 6 15.0298 6.76904 15.0298 7.71769ZM22.2823 9.43539C23.2366 9.43539 24 8.67197 24 7.71769C24 6.76342 23.2366 6 22.2823 6C21.3281 6 20.5646 6.76342 20.5646 7.71769C20.5646 8.67197 21.3281 9.43539 22.2823 9.43539ZM13.3122 17.8331C14.2608 17.8331 15.0299 17.064 15.0299 16.1154C15.0299 15.1667 14.2608 14.3977 13.3122 14.3977C12.3635 14.3977 11.5945 15.1667 11.5945 16.1154C11.5945 17.064 12.3635 17.8331 13.3122 17.8331ZM22.2823 17.8331C23.2366 17.8331 24 17.0696 24 16.1154C24 15.1611 23.2366 14.3977 22.2823 14.3977C21.3281 14.3977 20.5646 15.1611 20.5646 16.1154C20.5646 17.0696 21.3281 17.8331 22.2823 17.8331ZM19.5467 11.9165C19.5467 12.8708 18.7833 13.6342 17.8291 13.6342C16.8748 13.6342 16.1114 12.8708 16.1114 11.9165C16.1114 10.9623 16.8748 10.1988 17.8291 10.1988C18.7833 10.1988 19.5467 10.9623 19.5467 11.9165Z" fill="#4EAEA8"/>
</svg>
