<svg width="24" height="24" viewBox="0 0 24 24" fill="none" xmlns="http://www.w3.org/2000/svg">
<path fill-rule="evenodd" clip-rule="evenodd" d="M23.2251 16.2103C23.0109 16.3058 22.8067 16.3969 22.5671 16.3096C22.5588 16.2861 22.5473 16.2617 22.5356 16.2367C22.5108 16.1837 22.4849 16.1284 22.4859 16.0753C22.4876 16.0457 22.4891 16.0159 22.4906 15.9861C22.5001 15.7946 22.5099 15.5984 22.5656 15.4182C23.4401 12.5571 23.0588 9.88588 21.3985 7.37704C21.037 6.82872 20.7613 6.20993 20.5331 5.59268C20.2528 4.83451 19.8071 4.65991 19.1347 5.06579C18.2739 5.58502 17.6444 5.34302 17.1052 4.56801C15.9171 2.85935 14.1631 1.93653 12.4077 1.01302C11.8799 0.735335 11.352 0.45759 10.8393 0.158401C10.2756 -0.170903 10.196 0.0404639 10.0796 0.541312C9.91427 1.25153 9.71266 1.95403 9.50271 2.68555C9.417 2.98419 9.3299 3.28766 9.24332 3.59848C8.90773 3.37644 8.80745 3.06219 8.70461 2.73991C8.58966 2.37969 8.47151 2.00945 8.018 1.74672C7.77337 2.01485 7.52528 2.28524 7.27538 2.55761C6.72733 3.15492 6.17058 3.76172 5.62251 4.37502C3.86111 6.34778 2.25289 8.39099 2.51633 11.2598C2.62354 12.4192 2.39992 13.1513 1 12.1987C1.05981 12.5911 1.11681 12.9704 1.17241 13.3406C1.30478 14.2217 1.42928 15.0504 1.56518 15.8777C2.17324 19.5674 3.72327 22.4653 7.85565 23.2051C8.06551 23.2428 8.26824 23.3218 8.47073 23.4007C8.68793 23.4854 8.90485 23.57 9.12997 23.6033C9.3302 23.633 9.53089 23.6641 9.73193 23.6952C11.387 23.9515 13.0651 24.2113 14.6944 23.732C16.0683 23.3272 17.4117 22.8249 18.7557 22.3224C19.502 22.0434 20.2484 21.7643 21.0002 21.5019C21.5394 21.3135 21.9131 21.0562 22.1245 20.4925C22.5189 19.4385 22.9431 18.3955 23.3724 17.3399C23.5433 16.9198 23.7149 16.4977 23.8858 16.0722C23.6326 16.0286 23.4245 16.1214 23.2251 16.2103ZM14.224 8.98758C13.6788 8.98179 13.1336 8.976 12.5884 8.976V8.9761C12.5884 9.03427 12.5884 9.09244 12.59 9.14907C12.2311 9.14907 11.8724 9.14882 11.5137 9.14857C10.6171 9.14795 9.72076 9.14732 8.82366 9.1506C5.5725 9.16415 5.5725 9.16586 5.5662 12.3202C5.56609 12.3757 5.56598 12.4321 5.56585 12.4896C5.56278 13.7348 5.91812 14.0335 7.16948 13.9431C10.2332 13.7242 10.2374 13.7945 10.4133 16.775L10.4135 16.7782C10.4291 17.052 10.454 17.3254 10.4789 17.599C10.5102 17.9438 10.5416 18.2887 10.5544 18.6346C10.6067 20.0154 10.632 20.7025 10.9884 21.0463C11.3519 21.397 12.0599 21.3907 13.4921 21.3992C14.3529 21.4053 14.5872 21.0699 14.6148 20.3408C14.6392 19.7094 14.6705 19.0783 14.7018 18.4471C14.7628 17.218 14.8237 15.9891 14.8338 14.7595C14.8415 13.9171 15.0575 13.6399 15.9627 13.6261C19.224 13.5746 19.227 13.5322 19.4523 10.3766C19.4552 10.337 19.458 10.297 19.4609 10.2565C19.5406 9.14907 19.1546 8.89941 18.0993 8.95149C16.8097 9.01505 15.517 9.00132 14.224 8.98758Z" fill="#FF9F00"/>
</svg>
