<svg width="24" height="24" viewBox="0 0 24 24" fill="none" xmlns="http://www.w3.org/2000/svg">
<path fill-rule="evenodd" clip-rule="evenodd" d="M11.8848 22.9789V2.41321H12.0991V22.9789H11.8848Z" fill="#FFA700"/>
<path fill-rule="evenodd" clip-rule="evenodd" d="M4.15441 8.9173L11.9569 11.7153L11.8841 11.9157L4.08167 9.1177L4.15441 8.9173Z" fill="#FFA700"/>
<path fill-rule="evenodd" clip-rule="evenodd" d="M2.05951 11.7241L7.30402 4.60846L7.47694 4.73436L2.23243 11.85L2.05951 11.7241Z" fill="#FFA700"/>
<path fill-rule="evenodd" clip-rule="evenodd" d="M11.9666 2.623L7.4366 4.76763L7.34442 4.57529L11.8744 2.43066L11.9666 2.623Z" fill="#FFA700"/>
<path fill-rule="evenodd" clip-rule="evenodd" d="M11.8744 2.62301L8.87341 1.20272L8.96557 1.01038L11.9665 2.43066L11.8744 2.62301Z" fill="#FFA700"/>
<path fill-rule="evenodd" clip-rule="evenodd" d="M8.94806 1.01416H12.0205V1.2272H8.94806V1.01416Z" fill="#FFA700"/>
<path fill-rule="evenodd" clip-rule="evenodd" d="M9.07349 1.17452L4.02905 5.30755L3.8927 5.14316L8.93714 1.01013L9.07349 1.17452Z" fill="#FFA700"/>
<path fill-rule="evenodd" clip-rule="evenodd" d="M4.10682 5.19765L2.20622 11.8588L2 11.8007L3.9006 5.13953L4.10682 5.19765Z" fill="#FFA700"/>
<path fill-rule="evenodd" clip-rule="evenodd" d="M12.0003 23L8.87079 22.8296L8.88252 22.6169L12.0121 22.7873L12.0003 23Z" fill="#FFA700"/>
<path fill-rule="evenodd" clip-rule="evenodd" d="M8.87894 22.833L3.90594 18.6574L4.04428 18.4946L9.01727 22.6703L8.87894 22.833Z" fill="#FFA700"/>
<path fill-rule="evenodd" clip-rule="evenodd" d="M2.74125 15.3026L2.01245 11.8087L2.22234 11.7654L2.95114 15.2593L2.74125 15.3026Z" fill="#FFA700"/>
<path fill-rule="evenodd" clip-rule="evenodd" d="M2.93319 15.2179L4.10499 18.5982L3.90233 18.6676L2.73053 15.2873L2.93319 15.2179Z" fill="#FFA700"/>
<path fill-rule="evenodd" clip-rule="evenodd" d="M2.80884 15.1811L11.8117 11.8577L11.8863 12.0574L2.88347 15.3808L2.80884 15.1811Z" fill="#FFA700"/>
<path fill-rule="evenodd" clip-rule="evenodd" d="M4.54971 14.5542L9.42267 16.0455L9.35959 16.2491L4.48663 14.7578L4.54971 14.5542Z" fill="#FFA700"/>
<path fill-rule="evenodd" clip-rule="evenodd" d="M9.39111 16.0408H11.8776V16.2539H9.39111V16.0408Z" fill="#FFA700"/>
<path fill-rule="evenodd" clip-rule="evenodd" d="M12.1112 11.8863L7.23826 19.5843L7.05682 19.4708L11.9298 11.7729L12.1112 11.8863Z" fill="#FFA700"/>
<path fill-rule="evenodd" clip-rule="evenodd" d="M8.91962 22.5905L11.8491 20.7583L11.9633 20.9386L9.03378 22.7708L8.91962 22.5905Z" fill="#FFA700"/>
<path fill-rule="evenodd" clip-rule="evenodd" d="M11.8773 22.9486L6.26129 20.4915L6.34765 20.2965L11.9637 22.7536L11.8773 22.9486Z" fill="#FFA700"/>
<path fill-rule="evenodd" clip-rule="evenodd" d="M6.27338 20.4341L11.8894 18.744L11.9515 18.9479L6.3355 20.638L6.27338 20.4341Z" fill="#FFA700"/>
<path fill-rule="evenodd" clip-rule="evenodd" d="M4.61234 14.6052L8.98515 22.6014L8.79681 22.7031L4.42401 14.7069L4.61234 14.6052Z" fill="#FFA700"/>
<path fill-rule="evenodd" clip-rule="evenodd" d="M6.06856 13.9988L3.63922 9.78058L3.82525 9.67474L6.25459 13.893L6.06856 13.9988Z" fill="#FFA700"/>
<path fill-rule="evenodd" clip-rule="evenodd" d="M6.17279 13.874L7.24456 10.1387L7.45069 10.1971L6.37893 13.9324L6.17279 13.874Z" fill="#FFA700"/>
<path fill-rule="evenodd" clip-rule="evenodd" d="M4.48271 14.5496L3.85394 5.30355L4.06781 5.28918L4.69658 14.5352L4.48271 14.5496Z" fill="#FFA700"/>
<path fill-rule="evenodd" clip-rule="evenodd" d="M4.45494 14.6444L2.08276 12.1731L2.23786 12.026L4.61003 14.4973L4.45494 14.6444Z" fill="#FFA700"/>
<path fill-rule="evenodd" clip-rule="evenodd" d="M4.44629 14.5074L7.633 10.2324L7.80524 10.3592L4.61852 14.6342L4.44629 14.5074Z" fill="#FFA700"/>
<path fill-rule="evenodd" clip-rule="evenodd" d="M7.77942 10.3235L9.37993 15.9621L9.17362 16.0199L7.57312 10.3814L7.77942 10.3235Z" fill="#FFA700"/>
<path fill-rule="evenodd" clip-rule="evenodd" d="M9.02239 16.5558L6.0929 14.1272L6.2302 13.9636L9.15969 16.3922L9.02239 16.5558Z" fill="#FFA700"/>
<path fill-rule="evenodd" clip-rule="evenodd" d="M9.16011 16.3926L11.9896 18.7645L11.8514 18.9273L9.02191 16.5554L9.16011 16.3926Z" fill="#FFA700"/>
<path fill-rule="evenodd" clip-rule="evenodd" d="M9.39847 16.0662L12.085 20.7532L11.8988 20.8586L9.21222 16.1717L9.39847 16.0662Z" fill="#FFA700"/>
<path fill-rule="evenodd" clip-rule="evenodd" d="M11.9626 20.9084L4.00299 18.6644L4.06149 18.4594L12.0211 20.7035L11.9626 20.9084Z" fill="#FFA700"/>
<path fill-rule="evenodd" clip-rule="evenodd" d="M6.32581 14.0261L6.62591 20.3605L6.41179 20.3706L6.11169 14.0361L6.32581 14.0261Z" fill="#FFA700"/>
<path fill-rule="evenodd" clip-rule="evenodd" d="M6.34554 20.484L2.81586 15.5272L2.99082 15.4041L6.5205 20.3609L6.34554 20.484Z" fill="#FFA700"/>
<path fill-rule="evenodd" clip-rule="evenodd" d="M3.8692 18.5738L4.46939 14.7391L4.6812 14.7718L4.08101 18.6066L3.8692 18.5738Z" fill="#FFA700"/>
<path fill-rule="evenodd" clip-rule="evenodd" d="M8.57955 6.31986L7.47921 10.1404L7.27313 10.0818L8.37348 6.26123L8.57955 6.31986Z" fill="#FFA700"/>
<path fill-rule="evenodd" clip-rule="evenodd" d="M11.8298 11.8723L7.32843 4.78511L7.50969 4.67139L12.0111 11.7586L11.8298 11.8723Z" fill="#FFA700"/>
<path fill-rule="evenodd" clip-rule="evenodd" d="M7.43441 4.83365L3.97618 5.33075L3.9455 5.1199L7.40372 4.6228L7.43441 4.83365Z" fill="#FFA700"/>
<path fill-rule="evenodd" clip-rule="evenodd" d="M7.3 4.72865L6.39972 3.32257L6.58056 3.20819L7.48084 4.61427L7.3 4.72865Z" fill="#FFA700"/>
<path fill-rule="evenodd" clip-rule="evenodd" d="M7.52609 4.72351L7.76903 10.1632L7.55488 10.1726L7.31195 4.73296L7.52609 4.72351Z" fill="#FFA700"/>
<path fill-rule="evenodd" clip-rule="evenodd" d="M7.46277 4.63098L12.007 6.64779L11.9197 6.84232L7.37537 4.82551L7.46277 4.63098Z" fill="#FFA700"/>
<path fill-rule="evenodd" clip-rule="evenodd" d="M12.1091 1.18062L8.56515 6.35046L8.388 6.23051L11.932 1.06067L12.1091 1.18062Z" fill="#FFA700"/>
<path fill-rule="evenodd" clip-rule="evenodd" d="M11.8811 1.44968L6.79382 3.0404L6.72949 2.83718L11.8168 1.24646L11.8811 1.44968Z" fill="#FFA700"/>
<path fill-rule="evenodd" clip-rule="evenodd" d="M8.52013 6.38787L3.10414 8.78815L3.01685 8.59358L8.43283 6.1933L8.52013 6.38787Z" fill="#FFA700"/>
<path fill-rule="evenodd" clip-rule="evenodd" d="M8.47607 6.18406L11.92 6.16986L11.9209 6.3829L8.47696 6.3971L8.47607 6.18406Z" fill="#FFA700"/>
<path fill-rule="evenodd" clip-rule="evenodd" d="M7.57935 10.1995L11.8092 6.71979L11.9459 6.88391L7.71602 10.3636L7.57935 10.1995Z" fill="#FFA700"/>
<path fill-rule="evenodd" clip-rule="evenodd" d="M6.23982 3.48949L3.15313 8.74454L2.96802 8.63714L6.0547 3.38208L6.23982 3.48949Z" fill="#FFA700"/>
<path fill-rule="evenodd" clip-rule="evenodd" d="M3.6372 9.77684L3.10846 8.76844L3.29855 8.66998L3.82729 9.67839L3.6372 9.77684Z" fill="#FFA700"/>
<path fill-rule="evenodd" clip-rule="evenodd" d="M3.23912 8.66641L2.99619 15.1713L2.78198 15.1634L3.02492 8.65851L3.23912 8.66641Z" fill="#FFA700"/>
<path fill-rule="evenodd" clip-rule="evenodd" d="M9.04527 1.25085L7.48764 4.57431L7.29333 4.48436L8.85097 1.16089L9.04527 1.25085Z" fill="#FFA700"/>
<path fill-rule="evenodd" clip-rule="evenodd" d="M11.899 22.9789V2.41321H12.1134V22.9789H11.899Z" fill="#FFA700"/>
<path fill-rule="evenodd" clip-rule="evenodd" d="M19.9164 9.11775L12.1139 11.9015L12.0415 11.701L19.844 8.91724L19.9164 9.11775Z" fill="#FFA700"/>
<path fill-rule="evenodd" clip-rule="evenodd" d="M21.7801 11.8501L16.5213 4.73452L16.6941 4.6084L21.9529 11.724L21.7801 11.8501Z" fill="#FFA700"/>
<path fill-rule="evenodd" clip-rule="evenodd" d="M12.1238 2.43066L16.6538 4.57529L16.5616 4.76763L12.0316 2.623L12.1238 2.43066Z" fill="#FFA700"/>
<path fill-rule="evenodd" clip-rule="evenodd" d="M12.0318 2.43066L15.047 1.01038L15.1388 1.20289L12.1236 2.62318L12.0318 2.43066Z" fill="#FFA700"/>
<path fill-rule="evenodd" clip-rule="evenodd" d="M15.0643 1.21304H11.9919V1H15.0643V1.21304Z" fill="#FFA700"/>
<path fill-rule="evenodd" clip-rule="evenodd" d="M15.061 1.01013L20.1055 5.14316L19.9691 5.30755L14.9247 1.17452L15.061 1.01013Z" fill="#FFA700"/>
<path fill-rule="evenodd" clip-rule="evenodd" d="M20.0975 5.13953L21.9981 11.8007L21.7919 11.8588L19.8913 5.19765L20.0975 5.13953Z" fill="#FFA700"/>
<path fill-rule="evenodd" clip-rule="evenodd" d="M11.9861 22.7873L15.1156 22.6169L15.1274 22.8296L11.9978 23L11.9861 22.7873Z" fill="#FFA700"/>
<path fill-rule="evenodd" clip-rule="evenodd" d="M14.9951 22.6703L19.9681 18.4946L20.1064 18.6574L15.1335 22.833L14.9951 22.6703Z" fill="#FFA700"/>
<path fill-rule="evenodd" clip-rule="evenodd" d="M21.0613 15.2593L21.7901 11.7654L22 11.8087L21.2712 15.3026L21.0613 15.2593Z" fill="#FFA700"/>
<path fill-rule="evenodd" clip-rule="evenodd" d="M21.2678 15.2869L20.1103 18.6672L19.9073 18.5985L21.0649 15.2183L21.2678 15.2869Z" fill="#FFA700"/>
<path fill-rule="evenodd" clip-rule="evenodd" d="M21.1288 15.3808L12.126 12.0431L12.2009 11.8435L21.2037 15.1812L21.1288 15.3808Z" fill="#FFA700"/>
<path fill-rule="evenodd" clip-rule="evenodd" d="M19.5115 14.7578L14.6386 16.2491L14.5755 16.0455L19.4485 14.5542L19.5115 14.7578Z" fill="#FFA700"/>
<path fill-rule="evenodd" clip-rule="evenodd" d="M14.607 16.2539H12.1348V16.0408H14.607V16.2539Z" fill="#FFA700"/>
<path fill-rule="evenodd" clip-rule="evenodd" d="M12.0683 11.7728L16.9556 19.4707L16.7743 19.5844L11.887 11.8865L12.0683 11.7728Z" fill="#FFA700"/>
<path fill-rule="evenodd" clip-rule="evenodd" d="M14.9647 22.7568L12.0352 20.9388L12.1487 20.7581L15.0782 22.5761L14.9647 22.7568Z" fill="#FFA700"/>
<path fill-rule="evenodd" clip-rule="evenodd" d="M12.0346 22.7536L17.6649 20.2965L17.7511 20.4916L12.1208 22.9487L12.0346 22.7536Z" fill="#FFA700"/>
<path fill-rule="evenodd" clip-rule="evenodd" d="M17.6627 20.638L12.0466 18.9479L12.1088 18.744L17.7248 20.4341L17.6627 20.638Z" fill="#FFA700"/>
<path fill-rule="evenodd" clip-rule="evenodd" d="M19.5743 14.7068L15.2158 22.703L15.0273 22.6015L19.3858 14.6053L19.5743 14.7068Z" fill="#FFA700"/>
<path fill-rule="evenodd" clip-rule="evenodd" d="M17.7436 13.893L20.1729 9.67474L20.359 9.78058L17.9296 13.9988L17.7436 13.893Z" fill="#FFA700"/>
<path fill-rule="evenodd" clip-rule="evenodd" d="M17.6335 13.9324L16.5618 10.1971L16.7679 10.1387L17.8397 13.874L17.6335 13.9324Z" fill="#FFA700"/>
<path fill-rule="evenodd" clip-rule="evenodd" d="M19.3016 14.5352L19.9303 5.28918L20.1442 5.30355L19.5154 14.5496L19.3016 14.5352Z" fill="#FFA700"/>
<path fill-rule="evenodd" clip-rule="evenodd" d="M19.3882 14.4973L21.7604 12.026L21.9155 12.1731L19.5433 14.6444L19.3882 14.4973Z" fill="#FFA700"/>
<path fill-rule="evenodd" clip-rule="evenodd" d="M19.3795 14.6341L16.207 10.359L16.3795 10.2325L19.552 14.5076L19.3795 14.6341Z" fill="#FFA700"/>
<path fill-rule="evenodd" clip-rule="evenodd" d="M16.4393 10.3814L14.8388 16.0199L14.6325 15.9621L16.233 10.3235L16.4393 10.3814Z" fill="#FFA700"/>
<path fill-rule="evenodd" clip-rule="evenodd" d="M14.8528 16.378L17.768 13.9636L17.9052 14.1272L14.99 16.5417L14.8528 16.378Z" fill="#FFA700"/>
<path fill-rule="evenodd" clip-rule="evenodd" d="M14.9906 16.5412L12.1468 18.9273L12.0085 18.7645L14.8523 16.3784L14.9906 16.5412Z" fill="#FFA700"/>
<path fill-rule="evenodd" clip-rule="evenodd" d="M14.8001 16.1719L12.0992 20.8589L11.9132 20.753L14.6141 16.066L14.8001 16.1719Z" fill="#FFA700"/>
<path fill-rule="evenodd" clip-rule="evenodd" d="M11.9767 20.7034L19.9364 18.4452L19.9952 18.6501L12.0356 20.9083L11.9767 20.7034Z" fill="#FFA700"/>
<path fill-rule="evenodd" clip-rule="evenodd" d="M17.8865 14.0361L17.5864 20.3706L17.3723 20.3605L17.6724 14.0261L17.8865 14.0361Z" fill="#FFA700"/>
<path fill-rule="evenodd" clip-rule="evenodd" d="M17.4918 20.3611L21.0072 15.4043L21.1824 15.527L17.667 20.4838L17.4918 20.3611Z" fill="#FFA700"/>
<path fill-rule="evenodd" clip-rule="evenodd" d="M19.9171 18.6066L19.317 14.7718L19.5288 14.7391L20.1289 18.5738L19.9171 18.6066Z" fill="#FFA700"/>
<path fill-rule="evenodd" clip-rule="evenodd" d="M15.639 6.26154L16.725 10.0679L16.5188 10.126L15.4327 6.31966L15.639 6.26154Z" fill="#FFA700"/>
<path fill-rule="evenodd" clip-rule="evenodd" d="M11.9872 11.7442L16.5029 4.67114L16.6839 4.78529L12.1682 11.8583L11.9872 11.7442Z" fill="#FFA700"/>
<path fill-rule="evenodd" clip-rule="evenodd" d="M16.6087 4.6228L20.0527 5.1199L20.0219 5.33073L16.5779 4.83363L16.6087 4.6228Z" fill="#FFA700"/>
<path fill-rule="evenodd" clip-rule="evenodd" d="M16.5173 4.61427L17.4176 3.20819L17.5984 3.32257L16.6981 4.72865L16.5173 4.61427Z" fill="#FFA700"/>
<path fill-rule="evenodd" clip-rule="evenodd" d="M16.7005 4.73327L16.4432 10.173L16.2291 10.163L16.4864 4.72327L16.7005 4.73327Z" fill="#FFA700"/>
<path fill-rule="evenodd" clip-rule="evenodd" d="M16.637 4.82555L12.0784 6.84236L11.9913 6.64773L16.5498 4.63092L16.637 4.82555Z" fill="#FFA700"/>
<path fill-rule="evenodd" clip-rule="evenodd" d="M12.0806 1.04675L15.6245 6.23079L15.4472 6.35052L11.9033 1.16648L12.0806 1.04675Z" fill="#FFA700"/>
<path fill-rule="evenodd" clip-rule="evenodd" d="M12.1811 1.24634L17.2684 2.82285L17.2046 3.02624L12.1172 1.44972L12.1811 1.24634Z" fill="#FFA700"/>
<path fill-rule="evenodd" clip-rule="evenodd" d="M15.5795 6.1933L20.9955 8.59358L20.9082 8.78815L15.4922 6.38787L15.5795 6.1933Z" fill="#FFA700"/>
<path fill-rule="evenodd" clip-rule="evenodd" d="M15.535 6.39702L12.0768 6.36861L12.0786 6.15558L15.5368 6.18398L15.535 6.39702Z" fill="#FFA700"/>
<path fill-rule="evenodd" clip-rule="evenodd" d="M16.282 10.3636L12.0663 6.88386L12.2033 6.71997L16.4189 10.1997L16.282 10.3636Z" fill="#FFA700"/>
<path fill-rule="evenodd" clip-rule="evenodd" d="M17.9434 3.3819L21.0444 8.63695L20.8595 8.74473L17.7585 3.48968L17.9434 3.3819Z" fill="#FFA700"/>
<path fill-rule="evenodd" clip-rule="evenodd" d="M20.1715 9.67741L20.7145 8.66901L20.9035 8.76954L20.3605 9.77794L20.1715 9.67741Z" fill="#FFA700"/>
<path fill-rule="evenodd" clip-rule="evenodd" d="M20.9732 8.65851L21.2162 15.1634L21.002 15.1713L20.759 8.66641L20.9732 8.65851Z" fill="#FFA700"/>
<path fill-rule="evenodd" clip-rule="evenodd" d="M15.1616 1.16138L16.7049 4.48484L16.5103 4.57412L14.967 1.25065L15.1616 1.16138Z" fill="#FFA700"/>
</svg>
