<svg width="24" height="24" viewBox="0 0 24 24" fill="none" xmlns="http://www.w3.org/2000/svg">
<path d="M24 12.7001C23.9416 13.6584 23.7684 14.6061 23.484 15.5229C19.0932 15.26 14.9757 13.2983 12 10.0514C9.02453 13.2974 4.90814 15.259 0.518154 15.5229C0.234344 14.6059 0.0604024 13.6583 0 12.7001C1.48252 12.648 2.94762 12.3624 4.34154 11.8538C3.12162 10.8377 1.7187 10.0655 0.208721 9.57884C0.394359 8.64461 0.690815 7.73598 1.09177 6.87233C3.3393 7.60012 5.38776 8.84057 7.07608 10.4961C8.08819 9.85108 9.01484 9.08031 9.83397 8.20218C7.09379 7.72254 4.59072 6.34265 2.71921 4.27994C3.32221 3.5446 4.01038 2.88381 4.7692 2.3115C5.85937 3.52937 7.23767 4.4528 8.77723 4.9968C8.21284 3.62495 7.83057 2.18479 7.64021 0.713201C8.53318 0.366248 9.46411 0.126837 10.4134 0C10.603 1.8113 11.1405 3.56872 11.9964 5.17528C12.852 3.56984 13.39 1.81376 13.5807 0.00365766C14.5304 0.129146 15.4615 0.36885 16.354 0.71759C16.1639 2.18971 15.7816 3.63041 15.2169 5.00265C16.7556 4.45923 18.1332 3.53655 19.2228 2.31955C19.9823 2.89064 20.6716 3.54992 21.2764 4.2836C19.4051 6.34775 16.9013 7.72853 14.1602 8.20803C14.9804 9.08533 15.908 9.85511 16.921 10.4991C18.6093 8.84349 20.6578 7.60305 22.9053 6.87526C23.3042 7.73947 23.5996 8.64796 23.7854 9.58177C22.2766 10.0682 20.8746 10.8394 19.6548 11.8538C21.0498 12.3631 22.5162 12.6487 24 12.7001ZM13.418 23.9145V19.8709L17.4939 14.5442C16.6153 14.1564 15.7701 13.697 14.9666 13.1704L11.9985 17.0473L9.02974 13.1704C8.22644 13.6962 7.38142 14.1549 6.50319 14.542L10.5791 19.8709V23.9175C11.5222 24.0285 12.4751 24.0275 13.418 23.9145Z" fill="#FA6432"/>
</svg>
